<svg width="23" height="24" viewBox="0 0 23 24" fill="none" xmlns="http://www.w3.org/2000/svg">
<path d="M11.1234 6.93696C11.9743 6.84355 12.6786 6.99157 13.2365 7.38103C13.8022 7.76961 14.1297 8.36946 14.2187 9.18059C14.3008 9.9281 14.1184 10.5396 13.6716 11.0152C13.2319 11.482 12.6109 11.7635 11.8086 11.8596L11.8472 12.7608L10.058 12.9572L9.75476 10.7451L10.4705 10.6665C11.0828 10.5993 11.5397 10.4726 11.8412 10.2866C12.1506 10.0997 12.2836 9.8075 12.2399 9.40989C12.2093 9.13156 12.1098 8.92117 11.9412 8.77871C11.7727 8.63625 11.5532 8.57987 11.2829 8.60955C10.9966 8.64098 10.7831 8.74892 10.6424 8.93337C10.5008 9.10988 10.4453 9.33729 10.4758 9.61562L8.55536 9.82645C8.4862 9.34311 8.53759 8.89482 8.70952 8.48159C8.88941 8.06749 9.18184 7.72554 9.58681 7.45573C9.99887 7.17711 10.5111 7.00418 11.1234 6.93696ZM11.3169 15.9577C10.9591 15.997 10.6535 15.9259 10.4002 15.7445C10.1539 15.5542 10.0138 15.304 9.97975 14.9939C9.94483 14.6758 10.0269 14.3972 10.226 14.158C10.4331 13.918 10.7155 13.7783 11.0733 13.739C11.4232 13.7006 11.7213 13.7766 11.9675 13.9668C12.2217 14.1562 12.3663 14.41 12.4012 14.728C12.4352 15.0382 12.3487 15.3133 12.1417 15.5533C11.9417 15.7845 11.6668 15.9193 11.3169 15.9577Z" fill="#5D73C2"/>
<circle cx="11.0315" cy="11.0307" r="8.5" transform="rotate(-6.26479 11.0315 11.0307)" stroke="#5D73C2" stroke-width="3"/>
</svg>
