<svg width="19" height="20" viewBox="0 0 19 20" fill="none" xmlns="http://www.w3.org/2000/svg">
<path d="M1.53224 4.39562C1.46847 4.36533 1.46847 4.27458 1.53224 4.24429L7.12754 1.58664C7.18312 1.56024 7.24724 1.60077 7.24724 1.6623L7.24724 6.97761C7.24724 7.03914 7.18312 7.07967 7.12754 7.05327L1.53224 4.39562Z" fill="#3650FA" stroke="#3650FA" stroke-width="0.743795"/>
<rect x="6.71393" y="3.40543" width="11.4782" height="2.25381" rx="0.568049" fill="#3650FA"/>
<rect x="15.9383" y="9.02979" width="5.62436" height="2.25381" rx="0.568049" transform="rotate(-90 15.9383 9.02979)" fill="#3650FA"/>
<rect x="1.06208" y="16.5945" width="5.62436" height="2.25381" rx="0.568049" transform="rotate(-90 1.06208 16.5945)" fill="#3650FA"/>
<path d="M17.722 15.6044C17.7857 15.6346 17.7857 15.7254 17.722 15.7557L12.1267 18.4133C12.0711 18.4397 12.007 18.3992 12.007 18.3377L12.007 13.0224C12.007 12.9608 12.0711 12.9203 12.1267 12.9467L17.722 15.6044Z" fill="#3650FA" stroke="#3650FA" stroke-width="0.743795"/>
<rect x="12.5403" y="16.5945" width="11.4782" height="2.25381" rx="0.568049" transform="rotate(-180 12.5403 16.5945)" fill="#3650FA"/>
</svg>
