<svg width="31" height="23" viewBox="0 0 31 23" fill="none" xmlns="http://www.w3.org/2000/svg">
<circle r="6.12741" transform="matrix(-1 0 0 1 12.1115 14.5468)" fill="#3650FA"/>
<path d="M26.729 22.4686C27.2813 22.4686 27.7336 22.02 27.685 21.4699C27.5836 20.3199 27.3073 19.19 26.864 18.1198C26.2929 16.7411 25.4558 15.4883 24.4006 14.4331C23.3453 13.3778 22.0926 12.5408 20.7138 11.9697C19.3351 11.3986 17.8574 11.1046 16.3651 11.1046L16.3651 17.9906C16.9531 17.9906 17.5354 18.1065 18.0787 18.3315C18.622 18.5565 19.1156 18.8864 19.5315 19.3022C19.9473 19.718 20.2771 20.2117 20.5022 20.755C20.5992 20.9892 20.6759 21.2308 20.7318 21.4769C20.8541 22.0155 21.2907 22.4686 21.843 22.4686L26.729 22.4686Z" fill="#3650FA"/>
<rect width="12.1904" height="6.88427" rx="2" transform="matrix(-1 0 0 1 12.512 11.1046)" fill="#3650FA"/>
<path d="M12.1115 12.1311L12.1115 2.00452" stroke="#3650FA" stroke-width="2" stroke-linecap="round"/>
<path d="M18.0119 4.00882L6.08215 4.00882" stroke="#3650FA" stroke-width="2.86304" stroke-linecap="round"/>
</svg>
