<svg width="21" height="20" viewBox="0 0 21 20" fill="none" xmlns="http://www.w3.org/2000/svg">
<path d="M10.9239 14.3462C10.9239 11.4309 8.56059 9.06757 5.6453 9.06757C2.73001 9.06757 0.366707 11.4309 0.366707 14.3462C0.366707 17.2614 2.73001 19.6248 5.6453 19.6248C8.56059 19.6248 10.9239 17.2614 10.9239 14.3462Z" fill="#6A6A6A"/>
<path d="M17.8894 14.6907L15.8792 18.172C15.7249 18.4392 15.3392 18.4392 15.1849 18.172L13.1748 14.6907C13.0205 14.4234 13.2133 14.0894 13.522 14.0894L17.5422 14.0894C17.8508 14.0894 18.0437 14.4234 17.8894 14.6907Z" fill="#6A6A6A" stroke="#6A6A6A" stroke-width="0.413934"/>
<path d="M4.46218 2.52273C4.61648 2.25549 5.00221 2.25549 5.15652 2.52273L7.16664 6.00403C7.32096 6.27128 7.12808 6.60537 6.81947 6.60537L2.79923 6.60537C2.49062 6.60537 2.29774 6.27129 2.45206 6.00402L4.46218 2.52273Z" fill="#6A6A6A" stroke="#6A6A6A" stroke-width="0.413934"/>
<path d="M14.8822 1.19282C17.3833 1.19282 19.4108 3.22034 19.4108 5.72141C19.4108 8.22248 17.3833 10.25 14.8822 10.25C12.3811 10.25 10.3536 8.22248 10.3536 5.72141C10.3536 3.22034 12.3811 1.19282 14.8822 1.19282Z" stroke="#6A6A6A" stroke-width="1.5" stroke-miterlimit="10"/>
</svg>
